<svg width="36" height="29" viewBox="0 0 36 29" fill="none" xmlns="http://www.w3.org/2000/svg">
<path id="Vector" d="M3.50001 11.25L2.17438 12.5756L0.848755 11.25L2.17438 9.92438L3.50001 11.25ZM35.375 26.25C35.375 26.7473 35.1775 27.2242 34.8258 27.5758C34.4742 27.9275 33.9973 28.125 33.5 28.125C33.0027 28.125 32.5258 27.9275 32.1742 27.5758C31.8225 27.2242 31.625 26.7473 31.625 26.25H35.375ZM11.5494 21.9506L2.17438 12.5756L4.82563 9.92438L14.2006 19.2994L11.5494 21.9506ZM2.17438 9.92438L11.5494 0.549377L14.2006 3.20063L4.82563 12.5756L2.17438 9.92438ZM3.50001 9.375H22.25V13.125H3.50001V9.375ZM35.375 22.5V26.25H31.625V22.5H35.375ZM22.25 9.375C25.731 9.375 29.0694 10.7578 31.5308 13.2192C33.9922 15.6806 35.375 19.019 35.375 22.5H31.625C31.625 20.0136 30.6373 17.629 28.8791 15.8709C27.121 14.1127 24.7364 13.125 22.25 13.125V9.375Z" fill="#111111"/>
</svg>
