<svg width="80" height="80" viewBox="0 0 80 80" fill="none" xmlns="http://www.w3.org/2000/svg">
<g id="Llamados">
<g id="Group">
<path id="Vector" d="M45 6.66699C45 6.66699 52.78 7.37366 62.6767 17.2737C72.5767 27.1737 73.2833 34.9503 73.2833 34.9503M47.3567 18.4537C47.3567 18.4537 50.6567 19.3937 55.6067 24.3437C60.5567 29.2937 61.5 32.5937 61.5 32.5937" stroke="#919191" stroke-width="1.5" stroke-linecap="round"/>
<path id="Vector_2" d="M52.15 51.8103L53.6667 50.2103L50.04 46.7669L48.5233 48.3703L52.15 51.8103ZM58.6633 49.5369L65.03 53.2069L67.5267 48.8703L61.1567 45.2036L58.6633 49.5369ZM66.26 60.8036L61.5267 65.7869L65.15 69.2336L69.8833 64.2502L66.26 60.8036ZM58.6767 67.3869C53.8933 67.8569 41.41 67.4569 27.8633 53.1969L24.24 56.6369C39.0033 72.1803 53.0867 72.9669 59.1667 72.3636L58.6767 67.3869ZM27.8633 53.1969C14.9433 39.5936 12.7767 28.1169 12.5067 23.0836L7.51334 23.3536C7.84667 29.5203 10.46 42.1302 24.24 56.6369L27.8633 53.1969ZM32.45 31.0703L33.4033 30.0636L29.78 26.6203L28.8233 27.6269L32.45 31.0703ZM34.1567 17.5303L29.9533 11.5903L25.87 14.4769L30.07 20.4203L34.1567 17.5303ZM15.7233 10.3036L10.4967 15.8169L14.1233 19.2603L19.3567 13.7503L15.7233 10.3036ZM30.6367 29.3469C30.0368 28.7687 29.4312 28.1965 28.82 27.6303L28.8133 27.6369L28.8033 27.6469L28.6367 27.8403C28.3103 28.273 28.0518 28.7529 27.87 29.2636C27.5433 30.1803 27.37 31.3936 27.59 32.9069C28.0233 35.8803 29.9733 39.8769 35.0633 45.2403L38.69 41.7936C33.93 36.7836 32.7567 33.7003 32.5367 32.1803C32.43 31.4469 32.5367 31.0636 32.58 30.9403L32.6067 30.8769L32.5133 31.0003L32.4533 31.0669C32.4533 31.0669 32.4467 31.0669 30.6367 29.3469ZM35.0633 45.2403C40.14 50.5869 43.9733 52.6836 46.8967 53.1603C48.4 53.4036 49.6167 53.2069 50.5367 52.8436C51.0469 52.6445 51.521 52.363 51.94 52.0103L52.06 51.8969L52.1067 51.8503L52.13 51.8303L52.14 51.8203L52.1433 51.8136C52.1433 51.8136 52.15 51.8103 50.3367 50.0869C48.5233 48.3669 48.5267 48.3636 48.5267 48.3603L48.5333 48.3569L48.54 48.3469L48.5567 48.3303L48.59 48.2969L48.7133 48.1903C48.7467 48.1725 48.7422 48.1736 48.7 48.1936C48.6333 48.2203 48.3333 48.3269 47.7 48.2236C46.36 48.0036 43.4667 46.8236 38.69 41.7936L35.0633 45.2403ZM29.9533 11.5903C26.5733 6.81025 19.8133 6.00025 15.7267 10.3069L19.3467 13.7503C21.09 11.9169 24.1633 12.0603 25.87 14.4769L29.9533 11.5903ZM12.5067 23.0836C12.4333 21.7503 13.0167 20.4203 14.1233 19.2603L10.4967 15.8169C8.71 17.6969 7.35 20.3069 7.51334 23.3536L12.5067 23.0836ZM61.5233 65.7902C60.5933 66.7702 59.6233 67.2936 58.6767 67.3869L59.1667 72.3636C61.6567 72.1202 63.6733 70.7903 65.15 69.2336L61.5233 65.7902ZM33.4033 30.0669C36.63 26.6703 36.8567 21.3569 34.1567 17.5336L30.0733 20.4203C31.48 22.4103 31.2633 25.0603 29.78 26.6203L33.4033 30.0669ZM65.03 53.2069C67.7667 54.7836 68.3033 58.6569 66.26 60.8069L69.8833 64.2502C74.2333 59.6702 72.9667 52.0036 67.5267 48.8703L65.03 53.2069ZM53.6667 50.2136C54.95 48.8603 56.9533 48.5569 58.6633 49.5403L61.1567 45.2069C57.4933 43.1003 52.9567 43.7069 50.04 46.7736L53.6667 50.2136Z" fill="#919191"/>
<path id="Vector 1" d="M10 21L23 10L34 23L30 30L34 42L49 50L57 46L67 50L71 58L64 68L57 70L39 65L27 56L13 36L10 21Z" fill="#919191"/>
</g>
</g>
</svg>
