<svg width="81" height="80" viewBox="0 0 81 80" fill="none" xmlns="http://www.w3.org/2000/svg">
<g id="Personalizar">
<path id="Vector" d="M7.16663 19.9993C7.16663 14.9827 9.76663 9.73268 13.8333 6.66602C13.8333 9.48268 16.1333 13.3327 20.5 13.3327C23.1521 13.3327 25.6957 14.3863 27.571 16.2616C29.4464 18.137 30.5 20.6805 30.5 23.3327C30.5 24.6193 30.2366 25.8393 29.7933 26.9693C32.2656 28.9319 34.7004 30.9412 37.0966 32.996L30.1633 39.9293C28.1091 37.5327 26.0998 35.0978 24.1366 32.626C22.979 33.086 21.7456 33.3257 20.5 33.3327C13.1333 33.3327 7.16663 27.366 7.16663 19.9993ZM47.6733 42.826L52.1433 38.356C54.2134 39.4212 56.5052 39.9842 58.8333 39.9993C62.8115 39.9993 66.6268 38.419 69.4399 35.6059C72.2529 32.7929 73.8333 28.9776 73.8333 24.9993C73.8333 22.5827 73.2066 20.3293 72.19 18.3093L60.5 29.9993L53.8333 23.3327L65.5233 11.6427C63.4532 10.5775 61.1614 10.0145 58.8333 9.99935C54.855 9.99935 51.0397 11.5797 48.2267 14.3927C45.4136 17.2058 43.8333 21.0211 43.8333 24.9993C43.8333 27.416 44.46 29.6693 45.4766 31.6893L10.5 66.666L17.1666 73.3327L39.9933 50.506C46.2735 56.9448 52.9261 63.0097 59.9166 68.6693L64.6666 72.4993L69.6666 67.4993L65.8366 62.7494C60.177 55.7588 54.1121 49.1063 47.6733 42.826Z" fill="#919191"/>
</g>
</svg>
