<svg width="40" height="40" viewBox="0 0 40 40" fill="none" xmlns="http://www.w3.org/2000/svg">
<g id="Men&#195;&#186;">
<path id="Vector" d="M36.9727 19.7265L20.8828 3.64841C20.767 3.53233 20.6294 3.44024 20.4779 3.3774C20.3264 3.31457 20.164 3.28223 20 3.28223C19.836 3.28223 19.6736 3.31457 19.5221 3.3774C19.3706 3.44024 19.233 3.53233 19.1172 3.64841L3.02734 19.7265C2.55859 20.1953 2.29297 20.832 2.29297 21.4961C2.29297 22.875 3.41406 23.9961 4.79297 23.9961H6.48828V35.4687C6.48828 36.1601 7.04688 36.7187 7.73828 36.7187H17.5V27.9687H21.875V36.7187H32.2617C32.9531 36.7187 33.5117 36.1601 33.5117 35.4687V23.9961H35.207C35.8711 23.9961 36.5078 23.7343 36.9766 23.2617C37.9492 22.2851 37.9492 20.7031 36.9727 19.7265Z" fill="#919191"/>
</g>
</svg>
