<svg width="41" height="40" viewBox="0 0 41 40" fill="none" xmlns="http://www.w3.org/2000/svg">
<g id="Perfil">
<g id="Group">
<path id="Vector" fill-rule="evenodd" clip-rule="evenodd" d="M26.9166 15.0002C26.9166 16.7683 26.2142 18.464 24.964 19.7142C23.7137 20.9645 22.018 21.6668 20.2499 21.6668C18.4818 21.6668 16.7861 20.9645 15.5359 19.7142C14.2856 18.464 13.5833 16.7683 13.5833 15.0002C13.5833 13.2321 14.2856 11.5364 15.5359 10.2861C16.7861 9.03587 18.4818 8.3335 20.2499 8.3335C22.018 8.3335 23.7137 9.03587 24.964 10.2861C26.2142 11.5364 26.9166 13.2321 26.9166 15.0002ZM23.5833 15.0002C23.5833 15.8842 23.2321 16.7321 22.6069 17.3572C21.9818 17.9823 21.134 18.3335 20.2499 18.3335C19.3659 18.3335 18.518 17.9823 17.8929 17.3572C17.2678 16.7321 16.9166 15.8842 16.9166 15.0002C16.9166 14.1161 17.2678 13.2683 17.8929 12.6431C18.518 12.018 19.3659 11.6668 20.2499 11.6668C21.134 11.6668 21.9818 12.018 22.6069 12.6431C23.2321 13.2683 23.5833 14.1161 23.5833 15.0002Z" fill="#919191"/>
<path id="Vector_2" fill-rule="evenodd" clip-rule="evenodd" d="M20.25 1.66675C10.125 1.66675 1.91663 9.87508 1.91663 20.0001C1.91663 30.1251 10.125 38.3334 20.25 38.3334C30.375 38.3334 38.5833 30.1251 38.5833 20.0001C38.5833 9.87508 30.375 1.66675 20.25 1.66675ZM5.24996 20.0001C5.24996 23.4834 6.43829 26.6901 8.42996 29.2367C9.82903 27.4003 11.6335 25.912 13.7027 24.888C15.7718 23.8639 18.0496 23.3319 20.3583 23.3334C22.6373 23.3308 24.8867 23.8486 26.9352 24.8474C28.9836 25.8462 30.7769 27.2996 32.1783 29.0967C33.6224 27.2027 34.5947 24.9921 35.0148 22.6477C35.4349 20.3034 35.2907 17.8926 34.5941 15.6151C33.8976 13.3375 32.6687 11.2585 31.0091 9.55014C29.3495 7.84179 27.307 6.55318 25.0506 5.79093C22.7941 5.02868 20.3886 4.8147 18.0331 5.1667C15.6775 5.5187 13.4396 6.42657 11.5046 7.81517C9.56954 9.20377 7.99298 11.0332 6.90534 13.1521C5.8177 15.2709 5.25026 17.6184 5.24996 20.0001ZM20.25 35.0001C16.8065 35.0057 13.4669 33.821 10.7966 31.6467C11.8713 30.1078 13.3019 28.8513 14.9668 27.9842C16.6316 27.1171 18.4812 26.6651 20.3583 26.6667C22.2119 26.6651 24.0392 27.1058 25.6883 27.9523C27.3374 28.7987 28.7607 30.0264 29.84 31.5334C27.1491 33.7784 23.7544 35.0056 20.25 35.0001Z" fill="#919191"/>
</g>
</g>
</svg>
