<svg width="41" height="40" viewBox="0 0 41 40" fill="none" xmlns="http://www.w3.org/2000/svg">
<g id="Promociones">
<path id="Vector" d="M23.9933 3.49005C23.0886 2.71895 21.9387 2.29541 20.75 2.29541C19.5612 2.29541 18.4114 2.71895 17.5067 3.49005L15.26 5.40505C14.9931 5.63268 14.6613 5.77032 14.3117 5.79838L11.37 6.03171C10.185 6.12622 9.07251 6.6398 8.23196 7.48035C7.39141 8.3209 6.87783 9.43343 6.78332 10.6184L6.54999 13.5617C6.52146 13.9115 6.38322 14.2434 6.15499 14.51L4.24166 16.7567C3.471 17.6613 3.04773 18.8108 3.04773 19.9992C3.04773 21.1876 3.471 22.3371 4.24166 23.2417L6.15499 25.49C6.38262 25.7569 6.52027 26.0888 6.54832 26.4384L6.78332 29.38C6.87783 30.565 7.39141 31.6775 8.23196 32.5181C9.07251 33.3586 10.185 33.8722 11.37 33.9667L14.3117 34.2C14.6621 34.2282 14.9946 34.3665 15.2617 34.595L17.5067 36.5084C18.4114 37.2795 19.5612 37.703 20.75 37.703C21.9387 37.703 23.0886 37.2795 23.9933 36.5084L26.24 34.595C26.5073 34.3671 26.8398 34.2294 27.19 34.2017L30.1317 33.9667C31.3166 33.8722 32.4291 33.3586 33.2697 32.5181C34.1102 31.6775 34.6238 30.565 34.7183 29.38L34.9517 26.4384C34.9794 26.0882 35.117 25.7557 35.345 25.4884L37.26 23.2434C38.0311 22.3387 38.4546 21.1888 38.4546 20C38.4546 18.8113 38.0311 17.6614 37.26 16.7567L35.345 14.51C35.117 14.2427 34.9794 13.9103 34.9517 13.56L34.7183 10.6184C34.6238 9.43343 34.1102 8.3209 33.2697 7.48035C32.4291 6.6398 31.3166 6.12622 30.1317 6.03171L27.1883 5.79838C26.8387 5.77032 26.5068 5.63268 26.24 5.40505L23.9933 3.49005ZM25.4633 12.9284L27.8217 15.285L16.0367 27.0717L13.6783 24.7134L25.4633 12.9284ZM17.8033 17.0534C17.5727 17.2922 17.2968 17.4826 16.9918 17.6136C16.6868 17.7447 16.3588 17.8136 16.0268 17.8165C15.6949 17.8194 15.3657 17.7561 15.0584 17.6304C14.7512 17.5047 14.4721 17.3191 14.2373 17.0844C14.0026 16.8496 13.817 16.5705 13.6913 16.2633C13.5656 15.956 13.5023 15.6268 13.5052 15.2949C13.5081 14.9629 13.577 14.6349 13.7081 14.3299C13.8391 14.0249 14.0295 13.749 14.2683 13.5184C14.7398 13.063 15.3713 12.811 16.0268 12.8167C16.6823 12.8224 17.3093 13.0853 17.7729 13.5488C18.2364 14.0124 18.4993 14.6394 18.505 15.2949C18.5107 15.9504 18.2587 16.5819 17.8033 17.0534ZM23.6967 26.4817C23.4538 26.2521 23.2595 25.9762 23.1251 25.6703C22.9908 25.3643 22.9191 25.0345 22.9144 24.7004C22.9097 24.3663 22.972 24.0346 23.0976 23.725C23.2233 23.4154 23.4097 23.1341 23.646 22.8977C23.8822 22.6614 24.1634 22.4748 24.473 22.349C24.7826 22.2232 25.1142 22.1607 25.4483 22.1653C25.7825 22.1699 26.1123 22.2414 26.4183 22.3756C26.7243 22.5098 27.0003 22.704 27.23 22.9467C27.6716 23.4206 27.912 24.0475 27.9006 24.6951C27.8891 25.3428 27.6268 25.9607 27.1687 26.4188C26.7107 26.8768 26.0927 27.1392 25.4451 27.1506C24.7974 27.1621 24.1706 26.9216 23.6967 26.48" fill="#919191"/>
</g>
</svg>
