<svg width="41" height="40" viewBox="0 0 41 40" fill="none" xmlns="http://www.w3.org/2000/svg">
<g id="Buscador">
<path id="Vector" d="M26.3333 23.3333H25.0167L24.55 22.8833C26.2399 20.9235 27.1687 18.4212 27.1667 15.8333C27.1667 13.6907 26.5313 11.5962 25.3409 9.81466C24.1505 8.03313 22.4586 6.64459 20.4791 5.82464C18.4995 5.00469 16.3213 4.79016 14.2199 5.20816C12.1184 5.62617 10.1881 6.65795 8.67301 8.17301C7.15795 9.68808 6.12617 11.6184 5.70816 13.7199C5.29016 15.8213 5.50469 17.9995 6.32464 19.9791C7.14459 21.9586 8.53313 23.6505 10.3147 24.8409C12.0962 26.0313 14.1907 26.6667 16.3333 26.6667C19.0167 26.6667 21.4833 25.6833 23.3833 24.05L23.8333 24.5167V25.8333L32.1667 34.15L34.65 31.6667L26.3333 23.3333ZM16.3333 23.3333C12.1833 23.3333 8.83334 19.9833 8.83334 15.8333C8.83334 11.6833 12.1833 8.33334 16.3333 8.33334C20.4833 8.33334 23.8333 11.6833 23.8333 15.8333C23.8333 19.9833 20.4833 23.3333 16.3333 23.3333Z" fill="#919191"/>
</g>
</svg>
