<svg width="210" height="227" viewBox="0 0 210 227" fill="none" xmlns="http://www.w3.org/2000/svg">
<path d="M42.0179 26.75C14.5178 41.75 -35.4823 132.25 42.0179 200.25V26.75Z" fill="#0066FF" stroke="#0066FF"/>
<path d="M83.5179 221.75C70.3179 220.15 50.3512 207.083 42.0179 200.75V26.75C50.0179 17.95 73.0179 8.75 83.5179 5.25V73.25C45.9179 105.65 66.5179 144.75 83.5179 154.75V221.75Z" fill="#0083FE" stroke="#0083FE"/>
<path d="M83.5179 221.697V155.197C99.5179 165.597 117.851 164.197 125.018 162.197V224.697C108.618 227.097 90.5179 223.697 83.5179 221.697Z" fill="#00A0FD"/>
<path d="M125.018 2.69679V65.1968C105.018 60.7968 89.3512 68.0301 84.0179 72.1968V5.19679C100.418 -0.0032084 118.185 1.36346 125.018 2.69679Z" fill="#00A0FD"/>
<path d="M83.5179 221.697V155.197C99.5179 165.597 117.851 164.197 125.018 162.197V224.697C108.618 227.097 90.5179 223.697 83.5179 221.697Z" stroke="#00A0FD"/>
<path d="M125.018 2.69679V65.1968C105.018 60.7968 89.3512 68.0301 84.0179 72.1968V5.19679C100.418 -0.0032084 118.185 1.36346 125.018 2.69679Z" stroke="#00A0FD"/>
<path d="M125.018 224.246V162.246C155.518 152.246 147.518 138.246 166.518 130.746V210.746C148.118 221.946 131.184 224.413 125.018 224.246Z" fill="#00BCFC"/>
<path d="M166.518 16.2461V97.2461C154.018 93.2461 148.518 71.2461 125.018 65.7461V2.74609C140.618 3.54609 159.184 12.0794 166.518 16.2461Z" fill="#00BCFC"/>
<path d="M125.018 224.246V162.246C155.518 152.246 147.518 138.246 166.518 130.746V210.746C148.118 221.946 131.184 224.413 125.018 224.246Z" stroke="#00BCFC"/>
<path d="M166.518 16.2461V97.2461C154.018 93.2461 148.518 71.2461 125.018 65.7461V2.74609C140.618 3.54609 159.184 12.0794 166.518 16.2461Z" stroke="#00BCFC"/>
<path d="M166.518 130.25C186.018 119.25 250.518 153.75 166.518 210.75V130.25Z" fill="#00D9FB"/>
<path d="M166.518 96.75C190.518 109.25 249.518 69.75 166.518 16.25V96.75Z" fill="#00D9FB"/>
<path d="M166.518 130.25C186.018 119.25 250.518 153.75 166.518 210.75V130.25Z" stroke="#00D9FB"/>
<path d="M166.518 96.75C190.518 109.25 249.518 69.75 166.518 16.25V96.75Z" stroke="#00D9FB"/>
</svg>
